<svg version="1" xmlns="http://www.w3.org/2000/svg" width="1365.333" height="1365.333" viewBox="0 0 1024.000000 1024.000000"><path d="M779.3 1.3c-12 4.6-16.5 14.7-20.2 45.2-1.1 9.5-.3 42.2 1.4 53.5.2 1.4.7 6.1 1 10.5.4 4.4.8 8.7 1 9.5 2.4 12.6 2.4 64 0 73-.2.8-.7 3.6-.9 6.1-.8 6.5-3.1 17.2-7.1 32.9-1.9 7.4-4.3 17.8-5.5 23-8.1 37.9-23.3 68.3-62.4 124.5-5.5 7.8-14.3 18-21.3 24.5-9.8 9-20.4 16.1-36.3 24.1-6.9 3.5-12.6 6.7-12.8 7.1-.2.4-.8.8-1.4.8-1.6 0-16 9.3-25.3 16.3-8.2 6.3-18.6 14.9-26.5 22.2-4.1 3.8-11.2 10.3-24.4 22.5-2.7 2.5-6.3 5.8-8 7.3-1.7 1.6-7.8 7.2-13.5 12.5-5.8 5.4-12.5 11.6-15 13.9-2.6 2.4-5.6 4.3-6.8 4.3-1.9 0-2.2-.4-1.8-3.3.4-2.5 3-13.7 4.8-20.2 1.1-3.8 8.1-24.2 8.6-25 .4-.6 1.3-2.8 2-5 2.8-8.3 12.5-30 15.2-34 2.9-4.3 8.9-10.2 17.4-17 19.6-15.9 23.7-19.9 35.5-35 25.9-33.3 46.4-71.4 58.8-109.5 7.4-22.7 10.3-34.7 14.1-57.5 2.4-14.1 3.2-21.8 4.7-40.5.8-11 .8-46.1 0-57-1.5-19.2-2-24.3-3.1-28-.2-.8-.7-3-1-4.8-.8-4.7-4.3-14.8-7.3-20.7-10.9-21.9-25.4-32.5-42.7-31.2-7.9.6-13.4 2.5-22 7.7-19.7 11.8-32.3 30.7-44.7 67-2.9 8.7-8.4 28.9-9.3 34.4-.3 1.7-1 5.3-1.5 8.1-.5 2.7-1.2 7.2-1.5 10-.3 2.7-.8 6.6-1 8.5-.8 6-1.5 18.8-2 37-.3 9.6-.7 19.3-1 21.5-.2 2.2-.7 6.5-1.1 9.5-.3 3-1.7 10.8-3 17.2-2.6 13.1-6.1 33.7-6.9 41.3-.3 2.7-.7 6.1-1 7.5-.2 1.4-.7 5.4-1 9-.4 3.6-.8 7.6-1 9-.3 2.1-1 10.7-2 27.5-.6 9.7-1.6 37.5-2 54-.5 21.5-.8 24.2-4.1 36.5-2.9 10.8-11.7 41-14 48.5-.9 2.7-1.8 5.7-1.9 6.5-1 4.5-20.8 69.5-22.8 75-5.8 15.1-8 19.2-29 52.5-15.7 24.9-21.9 33.7-74.7 106-4.1 5.6-8.4 11.5-9.5 13.1-3.8 5.3-10.3 11.9-11.1 11.1-.4-.4-.9-3.3-1.1-6.5-.5-9.9-.7-71.1-.2-85.2.6-16.5-1-30.7-6.5-57.5-1.2-6-6.3-27.2-10.1-42.5-2.4-9.6-4.6-19-5-20.8-.8-4.8.9-10 6.2-18.9 2.5-4.3 6.8-12.1 9.6-17.3 9.4-17.9 14.3-25.1 26-38.3 3.1-3.4 6.8-7.6 8.2-9.2 5.1-5.9 15.5-22.2 19.4-30.6 8.2-17.8 13.3-37.1 15.8-60.4 1.3-12.7.7-41.4-1.2-55.9-.2-1.7-.6-6.3-1-10.1-.3-3.9-.7-8.1-1-9.5-.2-1.4-.6-5.4-.9-9-.6-5.9-.8-8.4-2.1-18.5-.2-1.7-.7-5.7-1-9-2.1-20.1-3.8-25.4-15.5-50-9.4-19.9-10-21.1-13.4-24.8-5.9-6.6-12.1-7.6-18.6-3-6.5 4.6-15.6 20.2-19.3 32.8-6.8 22.7-6.5 22.2-18 45l-10.4 20.8c-6.1 12.4-11.8 29.8-12.8 38.9-1.3 13.1-1.8 21.6-1.8 32.8-.1 11.9.9 30.5 1.8 35.3.3 1.2.7 3.3 1 4.7.2 1.4.7 4.1 1 6 .3 1.9 1.1 5.3 1.7 7.5.5 2.2 1.2 5 1.4 6.2 1.9 10.4 12.5 33.3 21.2 45.8 12.7 18.3 12.4 17.8 11.9 21.5-.3 2-4.4 10.1-9.7 18.9-9.1 15.1-12 19.1-13.9 19.1-1.1 0-14.5-27-18.9-38-2.8-7.2-7.7-22.3-8.8-27.2-.5-2.6-2.3-11.8-3-16.3-6.5-38.3-17.3-61.6-39.1-84.5-21.3-22.4-47.9-42.4-82.8-62.5-13.8-7.9-27.5-16.6-56.5-35.7-26-17.1-31.3-20.3-43-26-20.4-9.8-29.7-11.8-36.1-7.5-8.2 5.5-7.2 17.2 3.1 37.7 9.5 19.1 21.1 36.3 37.7 56.6 1.8 2.1 6.9 8.4 11.3 13.9 4.5 5.5 8.9 10.9 9.9 12 .9 1.1 3.4 4.2 5.6 7 11.9 14.7 23.1 28 28.2 33.2 12.2 12.6 21.7 19.2 74.8 52.7 72 45.3 72.4 45.6 75.2 48.6 3.6 3.8 4.1 4.8 17.8 42 19.2 51.9 27.5 78 30.9 96.5 2.6 14 2.5 13.6 4.1 26 1.4 11.7 1.9 16.6 3 30.5 1.2 16.9 1.6 29.3 2 65.4.5 53.5 1.1 51.3-25.9 81-4.5 4.9-9 9.9-10.1 11.1-9.3 10.3-19 20.9-23.9 26.2-3.2 3.5-6.6 7.2-7.5 8.2-1.7 1.9-20.3 21.9-26.1 28.1-11.3 12-24.3 26.1-26.2 28.6-1.2 1.6-2.5 3.1-2.9 3.4-1.8 1.4-11.6 14-19.4 25-6.6 9.3-12.4 15.9-22.9 26-7.7 7.4-19.6 19.1-26.5 26l-12.6 12.5 19.4.3 19.3.2 8.2-8.3c4.4-4.5 10.1-9.8 12.6-11.7 2.4-1.9 6.7-5.6 9.5-8.2 8.7-8.1 10.8-9.8 19.6-15.7 12.4-8.4 34.1-18.7 43.4-20.7 7.7-1.7 17.9-2.4 28.1-2.1 21.1.7 30.7-1.3 82.9-17.5 12-3.7 17.1-4 24.4-1.7 12.8 4 76.5 26.1 80.6 27.9 9.8 4.3 38.3 11.8 57.5 15.1 18.5 3.1 74.2 3.4 92 .5 1.4-.3 5.7-.9 9.5-1.5 3.9-.6 8.4-1.3 10-1.6 4.7-.9 26.7-6.5 27.7-7.1.4-.3 1.6-.7 2.5-.9 1-.3 5.6-1.6 10.3-3 21.6-6.6 40.3-11.7 55.2-15 19-4.1 28.6-7.3 36.6-11.9 21.1-12.4 26.1-29.2 12.9-42.9-10-10.2-33.2-21.8-49.2-24.6-11.6-1.9-32.6-3.2-60-3.7-8.8-.1-24.3-.4-34.5-.7-10.2-.3-20.7-.2-23.5.2-2.7.5-7.2 1.2-10 1.5-2.7.4-5.9.9-7 1.1-11.8 2.6-23.1 2.9-34.5 1-14.7-2.5-36.3-2.3-51.2.5-6.9 1.3-12.6 1.9-34.3 3.5-17.4 1.3-21.6 1.8-31 4-15.8 3.7-32.6 10.2-51.5 19.8-29.4 15-31.2 15.9-39.6 18.8-10.9 3.8-33.9 9.5-45.5 11.3-12.9 2.1-17.9 2.5-32.9 2.7-7.2 0-14.7.5-16.8 1-2 .4-5.1 1-6.7 1.3-1.7.3-7 1.9-11.9 3.6-4.9 1.7-9.4 3-10.1 2.8-2.5-.6.7-6.5 7.6-13.8 3.9-4.1 10.6-11.1 14.8-15.5 6-6.3 18.6-20.1 26.6-29.1 12.7-14.3 20.3-23.2 34.4-40.3 2-2.5 5.3-6.5 7.4-9 2-2.5 4.1-5.1 4.5-5.6.4-.6 4.8-6.2 9.8-12.5 4.9-6.4 17-22.6 26.9-36 9.8-13.5 23.1-31.2 29.4-39.4 6.4-8.2 13.4-17.2 15.6-20.1 18.9-24.3 32-40.7 35.5-44.3 6.7-6.8 16-11.6 32.5-16.7 15.5-4.8 47.3-13.2 53.5-14.1 1.9-.3 4.3-.7 5.2-1 1-.3 3-.7 4.5-1 1.6-.3 6.4-1.1 10.8-1.9 14.5-2.6 28.7-3.8 44.5-3.8 20.4.1 32 1.9 51.2 7.8 9.2 2.9 12.5 3.5 25 5 5.1.6 40.7 1.6 71.8 2 19 .3 28.9.8 35 2 12.9 2.5 13.6 2.6 27.1 2.9 24 .6 46.4-4.6 72.1-16.8 11.2-5.3 16.8-11 16.8-17.1 0-3.2-4.9-8-12.1-11.9-3-1.5-9.5-4.9-14.5-7.6-29.7-15.6-54.3-23.2-79.7-24.5-16.4-.9-18.8-1.3-36.4-6.6-15.8-4.7-22.3-6.4-28.3-7.5-1.4-.3-4.1-.9-6-1.4-1.9-.5-6-1.2-9-1.5-3-.4-6.6-.9-8-1.2-4.9-.8-39.6-1.1-45.5-.3-11.6 1.5-15.1 2.1-23.5 4.1-12.9 3-24.7 6.9-33 11-19.9 9.8-28.1 17.8-41.9 40.8-1.3 2.2-3.6 4.5-5 5-1.4.6-10.2 2.9-19.6 5.1-9.3 2.3-21.5 5.2-27 6.5-19.4 4.7-23.7 5.5-28.7 5.5h-5l.6-3.2c.9-4.5 3.9-10.5 8.4-16.6 2-2.8 6.1-8.6 9.1-12.9 10.1-14.5 43.2-59.1 50.2-67.5 4.3-5.1 16.5-17.5 26.5-26.9 30.7-28.5 81.4-64.3 120.9-85.4 5-2.6 9.5-5.1 10-5.5 1.1-.9 78.7-39.7 103.5-51.8 21.6-10.5 23.8-11.1 38.3-11.7 39.7-1.5 79.5-10.4 110.9-24.6 5.9-2.7 14.2-6.1 18.4-7.5 14.9-5 21-10.2 38.2-32.9 6.5-8.6 19.4-28.8 22-34.5 6.2-13.2 10.2-24.3 10.2-28.1 0-3.6-2.9-7.3-8.5-10.7-7.5-4.5-12.4-6.1-18.6-5.8-4.9.3-7.8 1-20.4 5.1-13.8 4.5-29.1 8.9-43 12.4-18.1 4.4-25 6.9-38.3 13.4-5.1 2.5-9.6 4.6-10 4.7-.4 0-7.9 3.6-16.7 8-20 9.9-40 22.8-53.5 34.5-14.4 12.5-31.3 32.6-40 47.5-4.7 8-9.5 13.1-18.7 19.7-12.5 8.9-30.2 17.3-36.4 17.3h-2.8l3.3-5.8c1.8-3.1 6.8-11.1 11.2-17.7 4.3-6.6 8.9-14 10.3-16.5 1.3-2.5 3-5.2 3.7-6.1.8-.8 1.4-1.8 1.4-2.1 0-.3 2.4-4.8 5.4-10.1 6.8-12 13.5-26 17-35.7 6.6-18.2 8-21.4 12-26.8 2.4-3.1 7.2-8.1 10.7-11.1 17.9-15.2 25.7-26.2 38-53.6 2.8-6.3 10.9-36.2 12.5-46.3.3-2 .8-4 1-4.3 1.6-2.7 2.4-36 1.1-48.3-1-9.4-4.4-24.6-7.4-33.1-7.8-22.4-26.8-49.1-39.6-55.7-4.9-2.4-14-3.2-18.4-1.5z"/></svg>